<svg xmlns="http://www.w3.org/2000/svg" viewBox="0 0 472 480"><defs><style>.cls-1{fill:#fd6a01;}</style></defs><title>data-analysis-orange</title><g id="Layer_2" data-name="Layer 2"><g id="Capa_1" data-name="Capa 1"><path class="cls-1" d="M360,0H40A40,40,0,0,0,0,40V296a40,40,0,0,0,30,38.74l4-15.49A24,24,0,0,1,16,296V40A24,24,0,0,1,40,16H360a24,24,0,0,1,24,24v8h16V40A40,40,0,0,0,360,0Z"/><rect class="cls-1" x="32" y="32" width="16" height="16"/><rect class="cls-1" x="64" y="32" width="16" height="16"/><rect class="cls-1" x="96" y="32" width="16" height="16"/><path class="cls-1" d="M469.66,442.34l-75.88-75.88a110.64,110.64,0,0,0,9.5-22.46H416V328h-9.28A107.79,107.79,0,0,0,400,270.67V192H384v50.94a112.6,112.6,0,0,0-16-16.61V160H352v55.15a111.26,111.26,0,0,0-16-7.64V128H320v74.66a110.77,110.77,0,0,0-16-2.25V144H288v56.41a110.77,110.77,0,0,0-16,2.25V176H256v31.51a111.31,111.31,0,0,0-16,7.64V168H224v58.34a112.6,112.6,0,0,0-16,16.61V184H192v86.67A107.79,107.79,0,0,0,185.28,328H80v16H188.72a111.77,111.77,0,0,0,171.55,59.58l74.07,74.07a8,8,0,0,0,11.31,0l24-24A8,8,0,0,0,469.66,442.34ZM296,408a96,96,0,1,1,96-96A96.1,96.1,0,0,1,296,408Zm144,52.69-67.3-67.3a113.34,113.34,0,0,0,12-13.34L452.69,448Z"/><path class="cls-1" d="M296,232a80,80,0,1,0,80,80A80,80,0,0,0,296,232Zm0,144a64,64,0,0,1-55.34-32H351.34A64,64,0,0,1,296,376Zm-61.9-48A63.42,63.42,0,0,1,256,262.12V312h16V252.71a63.71,63.71,0,0,1,16-4.16V312h16V248.55a63.71,63.71,0,0,1,16,4.16V312h16V262.12A63.42,63.42,0,0,1,357.9,328Z"/><path class="cls-1" d="M408,64H88a40,40,0,0,0-40,40V360a40,40,0,0,0,40,40H192V384H88a24,24,0,0,1-24-24V104A24,24,0,0,1,88,80H408a24,24,0,0,1,24,24V360a24,24,0,0,1-6,15.87l12,10.58A40,40,0,0,0,448,360V104A40,40,0,0,0,408,64Z"/><rect class="cls-1" x="80" y="96" width="16" height="16"/><rect class="cls-1" x="112" y="96" width="16" height="16"/><rect class="cls-1" x="144" y="96" width="16" height="16"/><rect class="cls-1" x="96" y="264" width="16" height="48"/><rect class="cls-1" x="128" y="216" width="16" height="96"/><rect class="cls-1" x="160" y="240" width="16" height="72"/></g></g></svg>