<svg xmlns="http://www.w3.org/2000/svg" viewBox="0 0 480 418.29"><defs><style>.cls-1{fill:#fd6a01;}</style></defs><title>finance-option-orange</title><g id="Layer_2" data-name="Layer 2"><g id="Layer_1-2" data-name="Layer 1"><path class="cls-1" d="M24,367.67H94.31l102.31,45.56c17.58,8,37.56,6.39,52.75-4L462.79,271.76c17.59-11.19,22.38-34.37,11.19-51.15-10.39-16-31.17-21.58-48.75-12.79l-179,91.92a8.5,8.5,0,0,1-9.59-1.6l-18.39-18.39,12-12a41,41,0,0,0,0-56.75l-33.57-33.57a64.17,64.17,0,0,0-90.32,0L93.52,191.83H24a23.55,23.55,0,0,0-24,24V343.7A23.55,23.55,0,0,0,24,367.67Zm94.31-177.44c18.39-18.39,48.76-18.39,67.94,0l33.57,33.57c9.59,9.59,9.59,24.78,0,33.57l-12,12L157.46,219,146.27,230.2l79.93,79.93c7.2,7.19,18.39,8.79,28,4l179-92.72A21.2,21.2,0,0,1,462,230.2c4.8,9.59,1.6,21.58-7.19,28L241.39,395.65c-11.19,7.2-25.58,8.79-37.57,3.2l-107.1-48V211.81ZM16,215.81a7.55,7.55,0,0,1,8-8h56V351.69H24a7.55,7.55,0,0,1-8-8Z"/><path class="cls-1" d="M111.9,16H447.6V183.84h16V0H95.92V151.87h16Z"/><path class="cls-1" d="M431.62,183.84V48h-16V32H143.87V48h-16v95.92h16V63.94a16,16,0,0,0,16-16H399.65a16,16,0,0,0,16,16V183.84Z"/><path class="cls-1" d="M255.77,103.91h16v16h-16Z"/><path class="cls-1" d="M271.76,183.84h16v16h-16Z"/><path class="cls-1" d="M233.63,186.71,305.5,98.87,317.87,109,246,196.84Z"/><path class="cls-1" d="M367.67,151.87a87.67,87.67,0,0,0-87.92-87.92c-44.76,0-83.13,34.37-87.12,79.13l16,1.6c4-39.16,39.16-68.74,79.13-64.74,39.16,4,68.74,39.17,64.74,79.13a72,72,0,0,1-71.94,64.74v16C328.51,239.79,367.67,200.62,367.67,151.87Z"/></g></g></svg>