<svg xmlns="http://www.w3.org/2000/svg" viewBox="0 0 1175.94 300"><defs><style>.cls-1{fill:#252460;}.cls-2{fill:#fd6a01;opacity:0.9;}</style></defs><title>homefy-logo</title><g id="Layer_2" data-name="Layer 2"><g id="Layer_1-2" data-name="Layer 1"><path class="cls-1" d="M364.82,107.22q22,0,34.16,12.27t12.14,36.18V239.1H374.76V161.58q0-13.34-6.42-19.32t-17.11-6a33.06,33.06,0,0,0-10.13,1.51,29,29,0,0,0-9,4.84,21.89,21.89,0,0,0-6.73,9.75,44.75,44.75,0,0,0-2.58,15.35V239.1H286.55V45.82h36.24v79.4Q337.51,107.22,364.82,107.22Z"/><path class="cls-1" d="M499.81,241.61q-20.64,0-36.62-7.93a59.24,59.24,0,0,1-25.1-23.28Q429,195.06,429,174.29q0-31.08,19.63-49.08t51.21-18q31.71,0,51.34,18t19.63,49.08q0,31.21-19.63,49.26T499.81,241.61Zm-.38-28.82q15.86,0,25.61-10.57t9.75-27.94q0-17.37-9.75-27.94t-25.61-10.57q-15.23,0-24.85,10.63T465,174.29q0,17.24,9.63,27.87T499.43,212.8Z"/><path class="cls-1" d="M744.53,107.22q21.14,0,33.35,10.51t12.21,30.14V239.1H753.85V158.18q0-10.82-5.79-16.36a20.28,20.28,0,0,0-14.6-5.54q-10.82,0-17.62,7T709,166.11v73H672.43V158.56q0-11.07-5.79-16.67t-15-5.6q-10.7,0-17.49,7.42T627.38,168v71.1H591.27V109.74h36.11V125q13.21-17.74,37.5-17.74,14.09,0,24.35,5a33.16,33.16,0,0,1,15.29,14.41Q718.11,107.22,744.53,107.22Z"/><path class="cls-1" d="M940.56,172.53l-.38,8.68H844.3q1.13,15.48,10.32,23.66T877.39,213a31.8,31.8,0,0,0,17.05-4.47,27.46,27.46,0,0,0,10.88-13l33.22,4.91Q932.13,220,915.9,230.79t-38.25,10.82q-31.71,0-50.4-17.81t-18.69-49.39q0-31.33,18.75-49.39T876.51,107q28.94,0,46.43,16.48T940.56,172.53Zm-63.8-39.89q-26.43,0-31.46,24.92H904.7q-1.39-12.08-8.93-18.5T876.76,132.64Z"/><path class="cls-1" d="M1034.66,74.76h-.76q-3.52,0-5.35.06t-5.16.44a20.87,20.87,0,0,0-5.22,1.13,26.59,26.59,0,0,0-4.34,2.33,11.57,11.57,0,0,0-3.78,3.78,22.7,22.7,0,0,0-2.27,5.6,29.17,29.17,0,0,0-.94,7.8v13.84h27.81v27.81h-27.81V239.1H970.73V137.55H945.44V109.74h25.29v-14a75.63,75.63,0,0,1,1.64-16.48,50.13,50.13,0,0,1,4.4-12.52,29.27,29.27,0,0,1,7.36-9,43.34,43.34,0,0,1,9.56-6,54.65,54.65,0,0,1,11.89-3.65,104.51,104.51,0,0,1,13.65-1.82q6.73-.44,15.42-.44Z"/><path class="cls-1" d="M1138.82,109.74h37.12L1096.17,300h-36.74L1089,233.81l-53.23-124.07h39.51l30.83,85.06Z"/><path class="cls-2" d="M186.59,55.5a3.72,3.72,0,0,0-.18-5.57L131.88,5A21.73,21.73,0,0,0,104.15,5L7.82,85.31A21.74,21.74,0,0,0,0,102V219.49A23.51,23.51,0,0,0,23.51,243h192a21.73,21.73,0,0,0,21.4-18,22,22,0,0,0,.32-3.73V102.07a21.93,21.93,0,0,0-.32-3.71,21.55,21.55,0,0,0-.95-3.59,1.78,1.78,0,0,0-3-.6L129.23,202a25.15,25.15,0,0,1-36.29-.14L42.16,148.49a16.81,16.81,0,0,1-.45-22.68l15.47-17.58a16.8,16.8,0,0,1,24.49-.78l23.17,23.17a9,9,0,0,0,12.78-.11L180.78,61Z"/></g></g></svg>