<svg xmlns="http://www.w3.org/2000/svg" viewBox="0 0 428.86 471.99"><title>Asset 1</title><g id="Layer_2" data-name="Layer 2"><g id="Layer_0_Image" data-name="Layer 0 Image"><path d="M2.76,225.62a1.56,1.56,0,0,1-.49-2c1.25-3.79,1.88-7.73,3-11.56a39.62,39.62,0,0,0,1.34-6.28c.21-1.69,1-3.21,1.3-4.92s1.05-3.56,1.46-5.39C9.7,194,10.59,192.59,11,191a70.14,70.14,0,0,1,2.16-6.73A12.5,12.5,0,0,1,15,180.14c.27-.31.21-.65.32-1a35.31,35.31,0,0,1,1.59-4c1.37-2.7,2.47-5.53,3.88-8.2,1-1.94,1.92-3.93,2.88-5.9s1.89-3.77,2.89-5.62a126.39,126.39,0,0,1,7.72-12.61,102.73,102.73,0,0,1,7.25-9A70.55,70.55,0,0,1,48,127c1.89-1.64,3.56-3.56,5.57-5s3.72-2.82,5.57-4.21q6.41-4.83,13.17-9.13c2.65-1.69,5.35-3.33,8-5.05,3.07-2,6.34-3.68,9.41-5.69,1.8-1.18,3.82-2.16,5.72-3.24s3.82-1.82,5.59-3a62.18,62.18,0,0,1,5.59-3c1.75-.9,3.41-2.27,5.51-2.46.9-1.49,2.67-1.48,4-2.22s2.72-1.4,4-2.21,2.63-1.64,3.93-2.42c2.64-1.59,5.12-3.43,7.74-5,1.6-1,2.79-2.35,4.27-3.43a52.75,52.75,0,0,0,7.75-7A13.89,13.89,0,0,1,147,61.21c.92-.54,1-1.62,1.72-2.27,1.25-1,2.33-2.29,3.5-3.43a1.46,1.46,0,0,0,.63-1.33L154.2,54c.42-.41-.26-.36-.22-.7.44-.51.78-1.18,1.57-1.42s.61-1.12,1.2-1.58c1.28-1,1.58-3,3.46-3.4.52-1.51,1.8-2.49,2.69-3.74a3.15,3.15,0,0,1,1.87-1.37c.72-.16.24-1.5,1.3-1.35,1.1-2.48,3.57-3.62,5.46-5.24,3-2.58,5.89-5.41,9.38-7.5,1.75-1,3.26-2.64,5-3.73,4-2.47,7.75-5.21,12-7.2,1.76-.82,3.33-2,5.1-2.84,3.74-1.71,7.49-3.43,11.36-4.84a4.19,4.19,0,0,1,2.25-.52c.92.16,1.24-.9,2.06-1.17,1-.32,2-.14,3-.67.55-.29,1.52-.35,2.15-.69,2.06-1.1,4.5-.87,6.53-2A5.87,5.87,0,0,1,233,3.71c2.79-.18,5.35-1.62,8.16-1.42a8.92,8.92,0,0,0,4.3-.83c.43-.19.88-.41,1.23-.26,1.24.53,2.45,0,3.65-.08s2.53-.59,3.87-.51a11.54,11.54,0,0,0,4.07-.05c2.21-.71,4.41-.42,6.62-.44,1.1,0,2.3-.49,3.34.48.55.51,1-1.18,1.84-.28.49.53,1,.38,1.67.05s1.25.67,1.81.22S275-.2,275.15.13c.5.83,1.26-.31,1.62.4a.27.27,0,0,0,.23.09c2.42-.29,4.7.78,7.14.61a11.68,11.68,0,0,1,4.32.7,24.7,24.7,0,0,0,4,.81c2.3.35,4.39,1.39,6.67,1.71.62.09.77,1.6,1.76.58.5.79,1.33.32,2,.54a5.66,5.66,0,0,1,1.36,1.06,8.4,8.4,0,0,1,3.78,1,63.63,63.63,0,0,1,7.31,3.4c3.22,1.78,6.58,3.44,9.16,6.18.53.56,1.19.1,1.7.54,3,2.57,6.27,4.83,8.83,8,1.07,1.31,2.66,2.28,3.76,3.61,2.22,2.68,4.79,5,6.65,8.08,1.1,1.8,2.53,3.49,3.7,5.31a55.86,55.86,0,0,1,6.21,11.88c1.11,3.18,2.28,6.34,3.13,9.62.29,1.13.18,2.3.55,3.31a7.59,7.59,0,0,1,.45,3.07c0,.82.78,1.32.61,2.24a2.36,2.36,0,0,0,.42,2.28c.32.34.08,1.22.08,1.85a13.09,13.09,0,0,1,0,2.72c-.15.71,1,1.32.08,2,.86.7.43,1.67.49,2.52s0,1.64,0,2.45v2.73a7.72,7.72,0,0,0,0,2.44c.5,1.4.12,2.84.42,4.26a19.77,19.77,0,0,1,.06,4.89c-.06,1.43.79,2.67.6,4.14a10.52,10.52,0,0,0,0,4.33c.47,1.5,0,3.1.58,4.38.69,1.53,0,3,.45,4.46.93,3.08.84,6.36,1.69,9.4,1.07,3.84,1.65,7.79,2.91,11.6.82,2.48,1.72,4.94,2.54,7.42a46.11,46.11,0,0,0,3.35,7.06,60.61,60.61,0,0,0,5.36,8.15c2,2.61,4.34,4.89,6.36,7.46.92,1.17,2,2.15,2.93,3.35s2.43,2.23,3.4,3.53c2.42,3.25,5.68,5.79,7.74,9.33,3.71,3.51,6,8.09,9.21,12,1.58,2,2.6,4.36,3.91,6.54,2.17,3.62,4,7.44,5.79,11.24a88.09,88.09,0,0,1,4.24,10.79c.87,2.64,1.61,5.33,2.52,8,.37,1.06-.15,2.31.76,3.23-.1,2.55,1.28,4.89,1.09,7.46.84,1.48.6,3.12.51,4.68-.07,1.19.86,2.09.63,3.33a6.76,6.76,0,0,0,0,3.51c.74,1.86.42,3.69.45,5.53q.11,6.41,0,12.82c0,1.4.44,2.86-.31,4.23-.66,1.2.26,2.64-.56,3.86-.3.44.55.73.38,1.33-.32,1.18.36,2.44-.43,3.65-.61.94.32,2.27-.59,3.3-.55.63,1.29,1.52-.09,2.23.23,1.52-.3,2.95-.55,4.41-.21,1.21.35,2.45-.38,3.67-.62,1,.35,2.5-.71,3.52.4,1.8-.64,3.44-.6,5.23a15.42,15.42,0,0,1-.67,4.06c-.52,2.06-1,4.14-1.4,6.22a20.71,20.71,0,0,1-.6,2.22c-.13.41-.57.6-.57,1.14,0,3.4-1.23,6.56-2.25,9.71a34.12,34.12,0,0,1-2,5.71c-.26.5-.24,1.41-.65,1.89-1.22,1.42-1.52,3.22-2.09,4.87a9.56,9.56,0,0,1-1.21,2.5c-.1.15-.36.26-.37.39,0,2.43-1.63,4.25-2.55,6.31s-2.16,3.83-3,5.85c-1.69,4.07-4.21,7.69-6.05,11.67a32.57,32.57,0,0,1-2,3.39c-.3.91.52,1,.39,1.68s-.76.88-1.6,1.09c.37,2-1.14,3.29-2,4.78-2.1,3.52-4.36,7-6.74,10.3a66.92,66.92,0,0,1-4.93,6.44c-5.86,6.41-12,12.58-18.22,18.58-2.39,2.29-4.78,4.6-7.28,6.76-2.13,1.83-4.26,3.7-6.5,5.39-5.22,3.94-10.45,7.89-16,11.44-4.22,2.71-8.58,5.16-12.94,7.62-2.79,1.58-5.64,3-8.56,4.36q-7,3.21-14.11,6.1c-4.47,1.81-9.25,2.62-13.61,4.67-3,0-5.55,1.85-8.54,1.77-1.26.87-2.82.72-4.2,1s-2.84.93-4.4.7c-.71-.11-1.36.67-2.23.53a2.58,2.58,0,0,0-2.17.38c-.66-.86-1.08.44-1.8.19a3.73,3.73,0,0,0-2.42,0c-1.73.69-3.63,0-5.21.6s-3.41,0-5,.5c-1.92.59-3.71-.46-5.57-.08-.16,0-.4-.31-.61-.49-.4.16-.2.6-.45,1a7.65,7.65,0,0,0-1.86-1,12.51,12.51,0,0,0-2.58,0L238.94,472c-1.09-.26-1.94.11-2.85-.36-.4-.21-1.39.19-2.1.32-.94.17-1.77-.89-2.43-.44a3.94,3.94,0,0,1-2.58.38q-11.86,0-23.73,0c-.85,0-1.82.39-2.52-.48-.87,1.34-1.65-.27-2.54-.09a5.85,5.85,0,0,1-2.52-.4c-1.45-.38-3.06-.07-4.61-.12a5.64,5.64,0,0,1-3.08-.47c-.83-.5-2-.13-3.07-.41a15.62,15.62,0,0,0-4.07-.76,5.15,5.15,0,0,1-2.8-.48c-.7-.39-1.8.32-2.47-.6-1.86.11-3.53-.68-5.28-1.06a107.74,107.74,0,0,1-12.43-3.59c-3.42-1.19-6.85-2.32-10.26-3.55-1.1-.4-2.21-.84-3.27-1.31a114,114,0,0,1-11.37-5.43c-3.22-1.88-6.54-3.62-9.69-5.65-1.67-1.08-3.6-1.83-5.35-2.85-4.13-2.4-8.19-4.91-12.11-7.62a65,65,0,0,1-9.91-7.7c-.78-.8-1.78-1.36-2.61-2.11a27,27,0,0,0-2.74-2.65c-1.35-.9-2.36-2.15-3.64-3.08-1-.72-.88-2.27-2.43-2.59-1.13-.23-1.16-2.08-2.49-2.4-.45-1.68-2.34-2-3.15-3.55s-2.35-2.49-3.57-3.72a38.88,38.88,0,0,1-3.64-3.7c-1.91-2.51-4.4-4.49-6.34-6.93s-4.21-4.26-5.56-6.95c-.32-.64-.89-.37-1.25-.78s-.32-1-.73-1.36a41.42,41.42,0,0,1-4.39-5c-2-2.44-3.87-4.94-5.86-7.36a137.82,137.82,0,0,1-8.41-11.81c-1.73-2.63-3.37-5.33-5-8-1.93-3.11-3.89-6.2-5.76-9.34-1.42-2.4-2.68-4.89-4.07-7.31-1.1-1.91-2.28-3.79-3.47-5.66-1.63-2.58-3.18-5.23-4.79-7.82a115.81,115.81,0,0,1-6.16-11.38,51.37,51.37,0,0,1-2.59-6,29.27,29.27,0,0,0-1.62-4c-1.28-2.54-1.82-5.26-2.68-7.9-.3-.93-.35-1.87-.58-2.77s-.35-1.67-.52-2.51c-.51-2.51-.56-5.12-1.5-7.55a1.12,1.12,0,0,1-.08-.51c.33-2.87-.81-5.62-.59-8.5.2-2.56-.88-5.08-.51-7.68C.2,267,.9,265.33.55,263.81c-.92-4.09-.39-8.22-.49-12.33s0-8.18,0-12.27a52.71,52.71,0,0,1,1.17-8.54,7.87,7.87,0,0,0,.46-2A4,4,0,0,1,2.76,225.62ZM145.85,69a1.68,1.68,0,0,0-2.37.15V71c-1.65.08-1.28,2.15-2.79,2.81-1.25.54-2.15,1.87-3.19,2.84.26.61,1.12.14,1.32.92.91-.81,1.55-2,3-1.74V74.55a5.72,5.72,0,0,0,2.44-1.88c.7-.7,2-.76,2.09-2.08,1.3.12,1.24-1.39,2.2-1.82a8.9,8.9,0,0,0,2.17-2c.74-.74,1.3-1.7,2-2.39a18.22,18.22,0,0,1,2-2.16c.85-.59,2-1,2.34-2a3.65,3.65,0,0,1,2.26-2.06c-.42-1.75,1-1.84,2.22-2.07l-.55-.55c0-.66.76-.14,1-.57.55-1.17,1-2.49,2.14-3.17s1.84-2,2.8-2.94c3.76-3.74,7.58-7.4,11.53-10.93.27-.24.49-.66.79-.73,1.79-.38,2.69-1.9,4-2.91a52.1,52.1,0,0,1,4-3.42,29.62,29.62,0,0,0,6.06-4.55c.36.13.39.54.58.44,1-1,1.86-2.32,2.92-2.55,1.43-.32,1.86-1.39,3.14-2.2-2.59.27-2.59.27-4,1.62-.86-.65-1.75.65-2.75,0-.23,1-.07,2.33-1.71,2.13a.62.62,0,0,0-.67.35c-.76,1.68-2.54,2.18-3.84,3.19-1,.8-2.14,1.81-3.56,1.43a5.18,5.18,0,0,1-2.5,2.77l-.72-.67-.95,2.09a5.73,5.73,0,0,0-2.57,1v1.08a3.27,3.27,0,0,0-1.89,1.36c-.48.54-1.34.51-1.6,1.48-.19.68-1.08,1.18-1.66,1.75-.61.13-1.32-.16-2,.31l1.5.59c-1.46,0-1.46,1.21-2.12,1.79-1.09,1-2.07,2-3.1,3.07.45,1.1-1.18.48-1.13,1.41.06,1.08-1.33,0-1.53.81l.16.2-3.7,3.7c-.28.38-.35-.68-.79-.17-.76.77,1.24,1.07.25,1.86-.36.11-.37-.59-.84-.29-.27.43.2,1.08-.36,1.48-.28-.35-.57-.72-.82-.62-.6.26-.53.55-.53.81,0,1.16-.21,2.18-1.46,2.62,0,1.12-1.22,1-1.72,1.69s-1.43,1.2-1.88,2C150.08,65.19,147.72,66.75,145.85,69ZM48,167c2.06-1.14,3-3,4.36-4.46a44.85,44.85,0,0,0,3.27-4.07c1.15-1.49,2.56-2.72,3.68-4.19a59,59,0,0,1,5.23-6.26c.51-.51,1.23-.94,1.48-1.56.7-1.67,2.23-2.53,3.35-3.78s1.87-2.8,3.23-3.86c.36-.28.8-.24,1.17-.8,1.51-2.29,3.94-3.84,5.37-6.24,1.11-.15,1.18-1.33,1.88-1.91s1.32-1.29,2-2c-1.31-.57-1.57.58-2.18.94a46,46,0,0,0-7.52,5.52A109.33,109.33,0,0,0,61,147.82c-.93,1.19-2,2.21-2.91,3.42q-4.43,6.17-8.66,12.48A8.61,8.61,0,0,0,48,167ZM23.78,178.46l.8-.84c-.59-.45-.63-1.17-1-1.71.34-1,1.82.2,2-1-.21-.46-.93,0-1-.63-.16-.94.55-1.57.82-2.34.44-.12.93.21,1.31-.22-.44-.56-.81-1.15-.33-1.86,1-1.4,1.23-3.25,2.7-4.33.53-.39.31-1.22,1-1.52-.37-1.29.56-2.14,1.11-3.08,1.78-3.09,3.51-6.2,5.47-9.18,2.59-3.95,5.19-7.91,8.13-11.6,2-2.54,3.84-5.31,6.29-7.5.39-.34.43-.72.08-1-9.92,8.58-16.68,19.42-22.42,31-.34-.36-.61-.76-1.17-.51a19.63,19.63,0,0,1-1.33,2.7,1.87,1.87,0,0,0,.08,2.67l-1.44,2.73c-.44,0-1,0-1.11.13-.71,1.26-1.88,2.38-1.24,4.06-1.22-.08-1.06,1.08-1.65,1.5.45.92-1.23,1.53-.3,2.63.67.79.28,1.57-.73,1.94l-.44-.44c.09.82-1.13,1.15-.72,2,.45.47.61-.75,1.1.05a30.69,30.69,0,0,1-1.85,4.31,3,3,0,0,0-.2,2.56c.63-1.1.77-2.27,2-2.65-.38-.38-.82-.68-.28-1.33s1.07-.53,1.69-.58a.21.21,0,0,0,.13-.37l-1.1-.39c1-2,1.76-4,3.11-5.78ZM291.87,461.85a1.42,1.42,0,0,0,1.53.07c2.14-1,4.41-1.67,6.61-2.47,4-1.43,7.8-3.12,11.62-4.88a203.49,203.49,0,0,0,19.06-9.95c2.63-1.57,5.25-3.18,7.78-4.9,2.71-1.84,5.28-3.89,8-5.75s4.91-3.91,7.41-5.8c2.1-1.59,3.83-3.63,6.09-5a6.3,6.3,0,0,0,1.16-1.14c.37-.39.86-.72,1-1.18A.76.76,0,0,0,361,421a22.94,22.94,0,0,1-3.87,3.21c-3.21,2.26-6.12,4.88-9.26,7.22-1.67,1.25-3.26,2.7-5,3.77-3.92,2.41-7.66,5.09-11.59,7.49-5.29,3.22-10.79,6-16.16,9.08-1.27.73-2.72,1-3.95,1.66a48.8,48.8,0,0,1-8.44,4c-2.23.77-4.26,2-6.57,2.62A14.38,14.38,0,0,0,291.87,461.85Zm22.6-68a13.81,13.81,0,0,1,3.7-2.18c1.5-.8,2.86-1.84,4.34-2.68.56-.32.39-1.41,1.36-1.2,1.45-2.62,3.8-4.3,6.19-6l.85.58.78-.74-.52-.57c.36-.64,1.25.18,1.57-.62l-1-.36c.09-1.66.09-1.67,1.61-2,.3-.06.48-.18.48-.51s-.34-.59-.54-.86c.3-.62,1.53-.83,1-1.78-1.74.56-2.68,2-4,3-1.5,1.17-3.09,2.23-4.52,3.51s-2.8,2.46-4.23,3.62a54,54,0,0,0-4.89,3.9c-.51.52-.94,1.26-1.56,1.48a5.34,5.34,0,0,0-1.87,1.41c-.61.57-1.18,1.17-1.73,1.73C312.59,394.58,313.57,392.53,314.47,393.88ZM202.54,192c1.15-.19.86-1.3,1.51-1.85a10,10,0,0,0,1.69-2c1.94-2.78,4.12-5.39,6.23-8.05,1.52-1.92,3.12-3.81,4.51-5.79s3-3.76,4.33-5.8,3.22-3.35,3.82-5.7c-1.29-.91-2.27-.92-3.3.33-1.48,1.8-2.83,3.71-4.19,5.61-1,1.32-1.74,2.77-2.78,4A75.68,75.68,0,0,0,209,180.6c-2.05,3.23-4.1,6.46-6.19,9.66A1.71,1.71,0,0,0,202.54,192ZM52,344.49a6.23,6.23,0,0,0-1-1.79c-.25-.23-.66-.16-.82-.74a67.73,67.73,0,0,0-2.2-7c-.46-1.16-.6-2.46-1.5-3.47-2.42-2.7-4.76-5.46-7.13-8.2-.22-.26-.6-.39-.6-.84,0-.63-.6-.86-1-1.22s-.53-.86-1.36-.9a85.77,85.77,0,0,0,5.66,10.6q2.9,4.8,6,9.51c.93,1.42,1.69,2.93,2.5,4.41.1.19.35.31.45.4Zm175.88,29.73c.08-1.93,1.38-3.43,1.82-5.24.54-2.22,1.27-4.38,1.86-6.59.5-1.88,1.1-3.73,1.45-5.66s1.17-3.87,1.65-5.85.92-4.14,1.62-6.13a25.91,25.91,0,0,0,1.07-3.37,17.52,17.52,0,0,1,1.11-3.89c.57-1.23.06-2.85,1.46-3.78.34-.22.18-.83.05-1.25-.07-.21-.37-.53-.33-.56,1.15-1.08.73-2.68,1.41-4.06-.52.1-.82,0-1,.64-1,3-2.11,5.85-3,8.81-.33,1-1,2.05-.75,3.23-1.29,2.15-1.54,4.67-2.06,7s-1.24,4.8-1.86,7.16c-1.38,5.22-2.5,10.52-4.26,15.64C228.36,371.67,226.92,372.79,227.86,374.22Zm-17.31,69.05.43,1.78c-1.45.07-.56,1.92-1.95,2.31-1.48.09-3.24-.17-4.94.51-.79.32-.72.59-.35,1.12,1.31,0,2.65.25,3.69-.57.63.25.21.95.78,1.12,1.69,0,3.55.41,5.1-.11,1.71-.57,3.33-.31,5-.41s3.44,0,5.17,0c.45,0,.91,0,1.36,0a1.37,1.37,0,0,0,.45-.22c0-.43.17-.87-.11-1.28-1.61.62-1.56.55-2.65-.42-.58-.51,0-.84-.07-1.17-.3-1-1.41-.49-1.94-1-.5-.33.38-1.06-.52-1.32-.38.86.34,2.11-1,2.59-1.45-.68-1.45-.68-2.41.81,0,.68,1,0,1,.86-.67-.09-1.45.54-1.64-.75-.06-.39-1.11-.63-1.45-.8-.63,0-.64.62-1.07.35-.71-.45-.77-1.24-1.13-1.81.31-.47.86-.66.95-1.14-.89-.55-1.12.68-1.84.37ZM87.12,161.46c-.93.93-1.85,1.72-2.61,2.65s-1.76,1.5-2.56,2.39c-1.06,1.19-1.83,2.6-3,3.7a67,67,0,0,0-6.19,7.21,112.89,112.89,0,0,0-8,12.46c-.59,1-1,2-1.52,3.07,8.23-10.14,15.27-21.14,24.08-30.78C87.36,162.09,87.23,161.84,87.12,161.46ZM285.86,303.76A88.2,88.2,0,0,0,294,290.52c2.9-5.5,5.64-11.09,8.49-16.61a1.43,1.43,0,0,0-.09-1.7c-6,10-11.15,20.33-16.56,30.53C285.74,303,285.86,303.41,285.86,303.76Zm69.79,79.48c-2.61.95-4.06,3.28-6.26,4.66a65.45,65.45,0,0,0-6.41,4.83c-2.13,1.75-4.17,3.61-6.24,5.41a1.16,1.16,0,0,0,1.4-.07c1.46-1.51,4-1.44,5.1-3.44,1.52,0,2.2-1.29,3.22-2.09a3.69,3.69,0,0,1,2.31-.88,5,5,0,0,1,2.32-2.24c.86-.4,1.34-1.48,2.39-1.71-.7-1.48-.59-1.62,1.59-2.21-.06-.34-.59-.41-.43-1.1Zm-22.88-10.77c-4.16,2-13.27,9.17-14.51,12.92,1.11-.69,2.35-.83,2.73-2.28.14-.53.94-.85,1.27-1.37.48-.75,1.37,0,1.91-.73s1.63-1.1,2-1.86c.47-1,1.57-1,2.17-1.76a5.44,5.44,0,0,1,1.93-1.86c.91-.34,1-1.62,2-1.55s.79-1.52,1.85-1.34c.93-1.08,2.39-1.5,3.25-2.67.31-.42.46-.73,0-1.18-1.21.18-2,1.11-2.92,1.69-.64-.09-.87-.93-1.54-.46,0,0-.15.11-.15.18C332.77,370.92,332.77,371.65,332.77,372.46ZM270.51,139.54c.75,0,1,.71,1.89.41a12.65,12.65,0,0,0,2.14-1.31,2.94,2.94,0,0,0,1.45-2.57c0-.87.75-.56,1.12-1,.07-1.75,0-3.5-1.9-5C273.74,133.38,271,135.73,270.51,139.54ZM410.2,236.62a20.89,20.89,0,0,0-.43-4.46c-.42-2.27-1.18-4.43-1.68-6.65-.77-3.39-2.27-6.5-3.47-9.72a17.08,17.08,0,0,0-1.41-3.22,14.58,14.58,0,0,1-1.59-3.14c0-.12-.2-.53-.69-.18a6,6,0,0,0,.41,1.61c1.19,2.4,1.94,5,2.92,7.48a78.07,78.07,0,0,1,2.63,8.14c.4,1.46.86,2.95,1.28,4.38C408.7,232.64,408.87,234.62,410.2,236.62Z"/></g></g></svg>