<svg xmlns="http://www.w3.org/2000/svg" viewBox="0 0 497 496.88"><defs><style>.cls-1{fill:#fd6a01;}</style></defs><title>title-registration-orange</title><g id="Layer_2" data-name="Layer 2"><g id="Layer_1-2" data-name="Layer 1"><path class="cls-1" d="M497,433,433.11,401H255.54V369.11H463.17V160.76a25.89,25.89,0,0,0,31.94-25.45V131A26.19,26.19,0,0,0,484,109.58L327.41,0l-71,49.68H59.37L1.87,145.51H16V244L0,262.29V496.88H255.54V464.93H433.11ZM279.5,417H423.24V449H279.5Zm-16,31.94H231.59a16,16,0,0,1,0-31.94h31.94ZM439.22,444V422l22.07,11Zm-39.93-90.9H335.4V265.29a8,8,0,0,1,8-8H391.3a8,8,0,0,1,8,8Zm16,0V265.29a24,24,0,0,0-24-24H343.39a24,24,0,0,0-24,24v87.84H255.54V193.42H207.63V152L327.41,67.44,447.2,152V353.13Zm59.53-230.47a10.18,10.18,0,0,1,4.35,8.35v4.29a10.19,10.19,0,0,1-16.08,8.33L327.41,47.89,191.78,143.64a10.21,10.21,0,0,1-16.09-8.33V131a10.18,10.18,0,0,1,4.35-8.35L327.41,19.5Zm-406.39-57H233.63l-62.75,43.93a26.1,26.1,0,0,0-11,20H30.08ZM31.94,145.51H161.78a26.21,26.21,0,0,0,24.1,16,25.76,25.76,0,0,0,5.77-.72v32.66H60.26L31.94,225.79Zm24,77.16v34.64H25.59ZM239.57,480.91H16V273.28h55.9V209.39h167.7V401h-8a31.94,31.94,0,0,0,0,63.89h8Z"/><path class="cls-1" d="M175.69,289.25H158.13l15.7-18.84-12.27-10.23-24.22,29.07H31.94V401H175.69Zm-16,95.83H47.91V305.22H124L87.3,349.29,69.52,331.52,58.23,342.81l30.14,30.14,56.46-67.73h14.88Z"/><path class="cls-1" d="M31.94,449H183.67v16H31.94Z"/><path class="cls-1" d="M31.94,417H183.67v16H31.94Z"/><path class="cls-1" d="M87.84,225.36H223.6v16H87.84Z"/><path class="cls-1" d="M351.37,289.25h16v16h-16Z"/><path class="cls-1" d="M263.53,185.43H391.3V137.52H263.53Zm16-31.94h95.83v16H279.5Z"/></g></g></svg>