<svg height="497pt" viewBox="0 0 497.888 497" width="497pt" xmlns="http://www.w3.org/2000/svg"><path d="m497.886719 434.210938-64-32h-177.886719v-32h208v-208.71875c1.886719.421874 3.808594.71875 5.785156.71875 14.453125 0 26.214844-11.757813 26.214844-26.214844v-4.296875c0-8.550781-4.183594-16.582031-11.183594-21.480469l-156.816406-109.773438-71.089844 49.765626h-197.4375l-57.601562 96h14.128906v98.703124l-16 18.289063v235.007813h256v-32h177.886719zm-217.886719-16h144v32h-144zm-16 32h-32c-8.824219 0-16-7.175782-16-16 0-8.824219 7.175781-16 16-16h32zm176-4.941407v-22.113281l22.113281 11.054688zm-40-91.058593h-64v-88c0-4.414063 3.585938-8 8-8h48c4.414062 0 8 3.585937 8 8zm16 0v-88c0-13.230469-10.769531-24-24-24h-48c-13.230469 0-24 10.769531-24 24v88h-64v-160h-48v-41.496094l120-84.710938 120 84.710938v201.496094zm59.640625-230.878907c2.734375 1.902344 4.359375 5.039063 4.359375 8.367188v4.296875c0 5.632812-4.585938 10.214844-10.214844 10.214844-2.121094 0-4.160156-.648438-5.890625-1.871094l-135.894531-95.917969-135.878906 95.917969c-1.746094 1.222656-3.785156 1.871094-5.90625 1.871094-5.628906 0-10.214844-4.582032-10.214844-10.214844v-4.296875c0-3.328125 1.625-6.464844 4.359375-8.367188l147.640625-103.351562zm-407.113281-57.121093h165.519531l-62.863281 44.007812c-6.582032 4.601562-10.542969 12.007812-11.007813 19.992188h-130.039062zm-36.527344 80h130.070312c3.992188 9.394531 13.304688 16 24.144532 16 1.96875 0 3.898437-.285157 5.785156-.71875v32.71875h-131.632812l-28.367188 32.425781zm24 77.296874v34.703126h-30.367188zm184 258.703126h-224v-208h56v-64h168v192h-8c-17.648438 0-32 14.351562-32 32 0 17.648437 14.351562 32 32 32h8zm0 0"/><path d="m176 290.210938h-17.585938l15.730469-18.871094-12.296875-10.246094-24.261718 29.117188h-105.585938v112h144zm-16 96h-112v-80h76.246094l-36.789063 44.152343-17.808593-17.808593-11.3125 11.3125 30.191406 30.191406 56.5625-67.847656h14.910156zm0 0"/><path d="m32 450.210938h152v16h-152zm0 0"/><path d="m32 418.210938h152v16h-152zm0 0"/><path d="m88 226.210938h136v16h-136zm0 0"/><path d="m352 290.210938h16v16h-16zm0 0"/><path d="m264 186.210938h128v-48h-128zm16-32h96v16h-96zm0 0"/></svg>