<svg xmlns="http://www.w3.org/2000/svg" xmlns:xlink="http://www.w3.org/1999/xlink" viewBox="0 0 1798.09 1966.23"><defs><style>.cls-1{isolation:isolate;}.cls-2{fill:#231f20;}.cls-2,.cls-38{opacity:0.2;}.cls-12,.cls-2,.cls-24,.cls-29,.cls-35,.cls-6,.cls-8{mix-blend-mode:multiply;}.cls-3{fill:url(#linear-gradient);}.cls-4{fill:#9d9eb3;}.cls-11,.cls-5{fill:#252460;}.cls-6{fill:url(#radial-gradient);}.cls-7{fill:#fd6a01;}.cls-8{fill:url(#linear-gradient-2);}.cls-9{fill:url(#linear-gradient-3);}.cls-10{fill:url(#linear-gradient-4);}.cls-11{opacity:0.3;}.cls-12{fill:#e6e7e8;}.cls-13{fill:url(#linear-gradient-5);}.cls-14{fill:#f1e8f6;}.cls-15{fill:url(#linear-gradient-6);}.cls-16{fill:url(#linear-gradient-7);}.cls-17{fill:#be5001;}.cls-18{fill:url(#linear-gradient-8);}.cls-19{fill:url(#linear-gradient-9);}.cls-20{fill:url(#linear-gradient-10);}.cls-21{fill:url(#linear-gradient-11);}.cls-22{fill:url(#linear-gradient-12);}.cls-23{fill:url(#linear-gradient-13);}.cls-24{fill:url(#linear-gradient-14);}.cls-25{fill:url(#linear-gradient-15);}.cls-26{fill:#7f8091;}.cls-27,.cls-28{fill:#fff;}.cls-27,.cls-40{opacity:0.15;}.cls-28{opacity:0.3;}.cls-29{fill:url(#White_Black_2);}.cls-30{fill:url(#New_Gradient_Swatch_copy_43);}.cls-31,.cls-32,.cls-34,.cls-39{opacity:0.5;}.cls-31,.cls-32,.cls-34{mix-blend-mode:color-dodge;}.cls-31{fill:url(#radial-gradient-2);}.cls-32{fill:url(#radial-gradient-3);}.cls-33{fill:url(#radial-gradient-4);}.cls-34{fill:url(#radial-gradient-5);}.cls-35{fill:url(#White_Black_2-2);}.cls-36{fill:#6b3a12;}.cls-37,.cls-38,.cls-39{fill:#f7aa90;}.cls-37{opacity:0.1;}</style><linearGradient id="linear-gradient" x1="607.01" y1="1825.47" x2="1508.27" y2="290.1" gradientUnits="userSpaceOnUse"><stop offset="0.06" stop-color="#e6e7e8"/><stop offset="0.08" stop-color="#ecedee"/><stop offset="0.12" stop-color="#f3f4f5"/><stop offset="0.22" stop-color="#e6e7e8"/><stop offset="0.58" stop-color="#fafafb"/><stop offset="0.69" stop-color="#e6e7e8"/><stop offset="1" stop-color="#e6e7e8"/></linearGradient><radialGradient id="radial-gradient" cx="2057.47" cy="-2898.06" r="387.17" gradientTransform="translate(-1120.27 3997.14) scale(1.18 1.02)" gradientUnits="userSpaceOnUse"><stop offset="0.19" stop-color="#5f5c5d"/><stop offset="1" stop-color="#fff"/></radialGradient><linearGradient id="linear-gradient-2" x1="1356.91" y1="1584.47" x2="452.3" y2="867.31" gradientUnits="userSpaceOnUse"><stop offset="0" stop-color="#fff"/><stop offset="1" stop-color="#939598"/></linearGradient><linearGradient id="linear-gradient-3" x1="1201.09" y1="1311.35" x2="1461.5" y2="1895.68" xlink:href="#linear-gradient"/><linearGradient id="linear-gradient-4" x1="701.84" y1="1018.48" x2="1034.05" y2="1200.56" xlink:href="#linear-gradient"/><linearGradient id="linear-gradient-5" x1="383.4" y1="1259.38" x2="812.99" y2="1259.38" xlink:href="#linear-gradient"/><linearGradient id="linear-gradient-6" x1="792.05" y1="1281.91" x2="1324.1" y2="972.93" xlink:href="#linear-gradient"/><linearGradient id="linear-gradient-7" x1="637.31" y1="1188.4" x2="822.91" y2="1188.4" xlink:href="#linear-gradient"/><linearGradient id="linear-gradient-8" x1="398.81" y1="1165.65" x2="722.07" y2="1233.11" xlink:href="#linear-gradient"/><linearGradient id="linear-gradient-9" x1="519.26" y1="1292.28" x2="610.99" y2="1292.28" xlink:href="#linear-gradient"/><linearGradient id="linear-gradient-10" x1="844.75" y1="1469.86" x2="1044.63" y2="1469.86" xlink:href="#linear-gradient"/><linearGradient id="linear-gradient-11" x1="812.93" y1="1517.24" x2="844.81" y2="1517.24" xlink:href="#linear-gradient"/><linearGradient id="linear-gradient-12" x1="812.93" y1="1454.76" x2="1044.63" y2="1454.76" xlink:href="#linear-gradient"/><linearGradient id="linear-gradient-13" x1="962.74" y1="1298.95" x2="889.3" y2="1343.76" gradientUnits="userSpaceOnUse"><stop offset="0.02" stop-color="#45108a"/><stop offset="0.29" stop-color="#3d065f"/><stop offset="1" stop-color="#12054e"/><stop offset="1" stop-color="#10054d"/></linearGradient><linearGradient id="linear-gradient-14" x1="794.87" y1="1087.59" x2="702.76" y2="1014.58" gradientUnits="userSpaceOnUse"><stop offset="0" stop-color="#fff"/><stop offset="1" stop-color="#bcbec0"/></linearGradient><linearGradient id="linear-gradient-15" x1="812.93" y1="1445.44" x2="1044.63" y2="1445.44" xlink:href="#linear-gradient"/><linearGradient id="White_Black_2" x1="905.34" y1="1002.49" x2="1115.16" y2="80.54" gradientUnits="userSpaceOnUse"><stop offset="0" stop-color="#fff"/><stop offset="1"/></linearGradient><linearGradient id="New_Gradient_Swatch_copy_43" x1="686.15" y1="623.05" x2="1325.02" y2="623.05" gradientUnits="userSpaceOnUse"><stop offset="0" stop-color="#25054d"/><stop offset="0.58" stop-color="#2f085f"/><stop offset="1" stop-color="#370b6f"/></linearGradient><radialGradient id="radial-gradient-2" cx="1770.43" cy="540.44" r="515.62" gradientUnits="userSpaceOnUse"><stop offset="0" stop-color="#972a74"/><stop offset="0.04" stop-color="#8a266a"/><stop offset="0.19" stop-color="#601b4a"/><stop offset="0.35" stop-color="#3d112f"/><stop offset="0.51" stop-color="#230a1b"/><stop offset="0.67" stop-color="#0f040c"/><stop offset="0.83" stop-color="#040103"/><stop offset="1"/></radialGradient><radialGradient id="radial-gradient-3" cx="591.96" cy="99.19" r="543.69" xlink:href="#radial-gradient-2"/><radialGradient id="radial-gradient-4" cx="1278.23" cy="-1623.33" r="0" gradientTransform="matrix(0.9, 0.43, -2.16, 4.58, -3476.79, 7235.71)" gradientUnits="userSpaceOnUse"><stop offset="0" stop-color="#ff63ce"/><stop offset="0.41" stop-color="#9f19ab"/><stop offset="0.62" stop-color="#901bb8"/><stop offset="0.82" stop-color="#7c1dc9"/><stop offset="0.99" stop-color="#6d23d5"/><stop offset="1" stop-color="#6b24d6"/></radialGradient><radialGradient id="radial-gradient-5" cx="917.52" cy="311.74" r="433.34" xlink:href="#radial-gradient-2"/><linearGradient id="White_Black_2-2" x1="1050.68" y1="1096.39" x2="85.76" y2="1661.7" xlink:href="#White_Black_2"/></defs><title>verification icon</title><g class="cls-1"><g id="Layer_2" data-name="Layer 2"><g id="Layer_1-2" data-name="Layer 1"><path class="cls-2" d="M1798.09,479.29,1041.72,49.49c-1.93,100.69-.18,431.79-.74,534.88-.91,166.93-25.89,298.4-218.59,449.23C761.07,1081.6,490.53,1229,271,1344.33,182,1391.13,175.2,1410.87,130.16,1449,86.52,1486,19.58,1520.35,0,1531.76l751.37,434.47c14-8.33,87.14-45,135.14-85.65,45-38.15,51.79-78.83,140.85-125.63,219.52-115.35,595.62-346.33,662.39-386.39,85.65-51.39,107.57-83.75,107.57-218.89C1797.32,1046,1796.11,578.11,1798.09,479.29Z"/><path class="cls-3" d="M1798.09,429.8,1041.72,0c-1.93,100.69-.18,431.79-.74,534.88-.91,166.93-25.89,298.4-218.59,449.23-61.31,48-331.85,195.37-551.37,310.73-89.06,46.8-103.43,106.51-148.47,144.66-43.64,37-92,47.08-111.61,58.49L762.3,1932.45c14-8.33,68.59-20.74,116.59-61.4,45-38.15,59.41-97.86,148.47-144.66,219.52-115.35,490-262.73,551.36-310.73,192.7-150.83,217.68-282.31,218.59-449.23C1797.89,862.77,1796.11,528.62,1798.09,429.8Z"/><path class="cls-4" d="M1690.39,701.78v18.4l20.93,12.08v-18.4Zm-.82,187.81,21.75,12.56v-18.4l-21.75-12.56Zm0,84.38,21.75,12.56v-18.4l-21.75-12.56ZM1672.3,752.2l25,14.43V748.22l-25-14.42Zm4.94-58-52.15-29.95v18.41l52.15,29.95Zm-65.31-37.55-88.34-50.74v18.4L1611.93,675Zm47.21,69.57-117.45-67.39v18.4l117.45,67.39ZM1624.27,852,1676.41,882v-18.4l-52.15-29.95Zm-18.92-53.39,67.26,38.68v-18.4l-67.26-38.68Zm-47.21-69.46L1616,762.35v-18.4l-57.91-33.17ZM1629.2,770l82.12,47.26V798.8l-82.12-47.26Zm60.37,249.7,21.75,12.56v-18.4l-21.75-12.56Zm-65.31-37.55,52.15,29.95v-18.4l-52.15-29.95Zm-18.92-53.39,67.26,38.68V949l-67.26-38.68ZM1629.2,900l82.12,47.26v-18.4L1629.2,881.6Z"/><path class="cls-4" d="M1059.69,1280.54l19.13-11-38.5-22.23-19.13,11Zm160.51,23.24-215.89-124.65-19.13,11,215.89,124.65Zm-74.39-68.2,19.13-11-68.76-39.7-19.13,11Zm105.51-8.52-154.7-89.32-19.13,11,154.7,89.32ZM850,1159.47l154.7,89.32,19.13-11-154.7-89.32ZM905.85,1097l154.7,89.32,19.13-11L925,1086Zm464.93,293.67-134.07-77.41-19.13,11,134.07,77.41Zm76.92-97.6-215.89-124.65-19.13,11,215.89,124.65Zm-232.4-134.17-154.7-89.32-19.13,11,154.7,89.32Zm52.51,77.66-19.13,11,38.5,22.23,19.13-11Zm-1.29,141.27L1095.33,1279l-19.13,11,171.2,98.84Zm-104.22-132.76,130.64,75.42,19.13-11-130.64-75.42Zm147.14,85,139.8,80.72,19.13-11L1328.58,1319Zm58.7,81.23,40.11,23.16,19.13-11-40.11-23.16ZM852.62,1138.9l-68.53-39.56-19.13,11,68.53,39.56Zm611.59,163.75-19.13,11,86.17,49.75,19.13-11ZM1494,1367.2l-171.2-98.84-19.13,11,171.2,98.84ZM1044.1,1060.1l-96-55.44-19.13,11,96,55.44Zm-56.3,109.51-162.72-93.95-19.13,11,162.72,93.95Zm-79.33-93.14L866.08,1052,847,1063l42.4,24.48Zm171.63,51.75-173-99.9-19.13,11,173,99.9Z"/><path class="cls-4" d="M853.34,1398.46l19.13-11L834,1365.19l-19.13,11Zm160.51,23.24L798,1297.06l-19.13,11,215.89,124.65Zm-74.39-68.2,19.13-11-68.76-39.7-19.13,11ZM1045,1345l-154.7-89.32-19.13,11,154.7,89.32Zm-401.33-67.6,154.7,89.32,19.13-11-154.7-89.32ZM699.49,1215l154.7,89.32,19.13-11-154.7-89.32Zm464.93,293.67-134.08-77.41-19.13,11,134.07,77.41Zm76.92-97.6-215.89-124.65-19.13,11,215.89,124.65ZM1009,1276.86l-154.7-89.32-19.13,11,154.7,89.32Zm52.51,77.66-19.13,11,38.5,22.23,19.13-11Zm-1.29,141.27L889,1396.94l-19.13,11,171.2,98.84ZM956,1363l130.64,75.42,19.13-11L975.09,1352Zm147.14,85,139.8,80.72,19.13-11-139.8-80.72Zm58.7,81.23,40.11,23.16,19.13-11-40.11-23.16Zm-515.53-272.4-68.53-39.56-19.13,11,68.53,39.56Zm611.59,163.75-19.13,11,86.17,49.75,19.13-11Zm29.82,64.56-171.2-98.84-19.13,11,171.2,98.84ZM837.75,1178l-96-55.44-19.13,11,96,55.44Zm-56.3,109.51-162.72-93.95-19.13,11,162.72,93.95Zm-79.33-93.14-42.4-24.48-19.13,11,42.4,24.48Zm171.63,51.75-173-99.9-19.13,11,173,99.9Z"/><path class="cls-4" d="M632.52,1533.85l19.13-11-68.76-39.7-19.13,11ZM738,1525.34,583.32,1436l-19.13,11,154.7,89.32Zm-345.47-130,154.7,89.32,19.13-11-154.7-89.32Zm541.85,196.07L718.52,1466.73l-19.13,11,215.89,124.65ZM702,1457.21l-154.7-89.32-19.13,11,154.7,89.32Zm52.51,77.66-19.13,11,38.5,22.23,19.13-11Zm196.39,66-19.13,11,86.17,49.75,19.13-11Zm29.82,64.56-171.2-98.84-19.13,11,171.2,98.84Zm-449.92-307.1-96-55.44-19.13,11,96,55.44ZM358.33,1551.11l-162.72-93.95-19.13,11,162.72,93.95Zm36.86-176.37-42.4-24.48-19.13,11,42.4,24.48Zm171.63,51.75-173-99.9-19.13,11,173,99.9Z"/><path class="cls-5" d="M754,1843.61a2.59,2.59,0,0,1-2.16-2c-7.07-29,9.13-57.51,26-79.22a42.26,42.26,0,0,0-12.51-15.55c-1.16-.9-2.4-1.79-3.66-2.7-2.22-1.61-4.54-3.29-6.6-5.1a41.37,41.37,0,0,1-8.4,21.45,2.66,2.66,0,0,1-2.62,1,2.61,2.61,0,0,1-2-2c-2.81-12.23-6-26.1-2.32-39.45a40.78,40.78,0,0,1,15.12-21.73l-29.65,4.42c8.42,21.7,7.3,43.45-3.32,63.09a2.58,2.58,0,0,1-1.11,1.09c-7.51,3.8-17.69,4.45-27.35,1.88a103.07,103.07,0,0,1-11.68,47.55,2.55,2.55,0,0,1-2.53,1.4A22.88,22.88,0,0,1,661.11,1806c-3.07-5.87-3.11-12.37-3.16-17.59-.11-15.31.06-30.72.49-46.12-5.17-7.16-8.5-14.42-9.9-21.45-.53-1-1-2-1.51-3-6-12.52-6.19-17.12-6.43-21.57-.21-4.12-.42-8-5.92-19.6l4.69-2.24c6,12.52,6.19,17.12,6.43,21.57a32.78,32.78,0,0,0,2.47,11.63,32.79,32.79,0,0,1,2.16-7.3,2.62,2.62,0,0,1,2.09-1.56l10.12-1.17a2.6,2.6,0,0,1,2.9,2.74q-.89,14.54-1.46,29.19l.94.32a40,40,0,0,0,7,1.22c3.89.46,7.9.93,11.25,2.92,4.52,2.67,6.16,7.13,7.17,11.15a97.28,97.28,0,0,1,2.8,18.26c8.49,2.59,17.81,2.33,24.44-.72,10-18.94,10.46-40,1.45-60.94a2.6,2.6,0,0,1,2-3.6l52.12-7.77a2.6,2.6,0,0,1,.86,5.13,37.23,37.23,0,0,0-29.39,26c-2.79,10.1-1.22,20.57,1,30.86a34.36,34.36,0,0,0,4.1-19.43,10.62,10.62,0,0,1-1.15-7,2.6,2.6,0,0,1,2.43-2.13,2.36,2.36,0,0,1,2.63,1.88,37.53,37.53,0,0,1,1.15,5.61c1.92,3,5.9,5.9,9.81,8.72,1.3.94,2.59,1.87,3.78,2.8a47.57,47.57,0,0,1,12.91,15.17c2.12-2.6,4.22-5.1,6.26-7.46,4.26-4.94,8.66-9.84,13.07-14.75,9.21-10.26,18.58-20.7,26.66-31.54.85-5.31,2-10.88,3.6-16.78,1.15-4.4,4.67-17.78,17.9-20.94a2.63,2.63,0,0,1,2.51.76,2.6,2.6,0,0,1,.57,2.56c-4.07,12.91-11.15,25-19.64,36.48-1.87,12.5-1.68,23.41.52,33.53a69.28,69.28,0,0,0,30.93,43.93L861,1788.1a74.42,74.42,0,0,1-33.22-47.22,90.42,90.42,0,0,1-1.59-26.65c-6.83,8.52-14.26,16.79-21.58,24.95-4.39,4.89-8.77,9.76-13,14.68-2.52,2.92-5.15,6-7.77,9.34a51.88,51.88,0,0,1,3,24.57c-1.75,15.87-9.35,30.71-16.7,45.05-3.59,7-8.77,10.9-14.41,10.9A12.54,12.54,0,0,1,754,1843.61Zm2.45-5.12c4.49-.46,7.55-5.09,9.06-8,7.14-13.93,14.52-28.33,16.16-43.25a47.37,47.37,0,0,0-1.66-19.09C764.94,1788,751.24,1813.24,756.41,1838.5Zm-90.19-86.91q-1.42-1.48-2.74-3c-.32,13.3-.43,26.59-.33,39.79,0,4.91.08,10.47,2.56,15.21a17.58,17.58,0,0,0,12.18,8.76,97.54,97.54,0,0,0,10.26-45.26C680.46,1764.07,673.46,1759.11,666.23,1751.59Zm-2.52-11A80.59,80.59,0,0,0,670,1748c6,6.22,11.75,10.54,17.88,13.36a91.63,91.63,0,0,0-2.49-14.95c-.9-3.61-2.07-6.34-4.78-7.94-2.4-1.42-5.71-1.81-9.21-2.23a46.66,46.66,0,0,1-7.5-1.31C663.82,1736.81,663.76,1738.72,663.7,1740.62Zm-9-36.88a29,29,0,0,0-1.2,15.33,26.38,26.38,0,0,0,5.52,7.37q.48-11.7,1.16-23.33Zm181.31-15c-.42,1.6-.81,3.17-1.18,4.71a114.35,114.35,0,0,0,10.25-19.78C840.87,1676.4,837.93,1681.31,836,1688.72Z"/><ellipse class="cls-6" cx="1309.61" cy="1042.86" rx="457.25" ry="394.68"/><path class="cls-7" d="M1610.15,1280.13c155.93-330-32.95-746.48-421.87-930.26h0c177.92,84.07,159.83,498.52-36.59,938C1284.86,1271.39,1543.11,1266.46,1610.15,1280.13Z"/><path class="cls-7" d="M1598.06,1298.68a5.12,5.12,0,0,1-2.21-.5,5.2,5.2,0,0,1-2.49-6.92c.65-1.39,3.87-8.61,6.5-14.52,1.69-3.8,3.15-7.06,3.56-8C1750.69,946,1562.52,537.93,1183.94,359a5.2,5.2,0,0,1,4.45-9.41C1374.82,437.73,1521.54,582,1601.52,756s84.09,357.74,11.36,517.12c-.41.88-1.84,4.12-3.52,7.88-2.67,6-5.93,13.31-6.59,14.71A5.2,5.2,0,0,1,1598.06,1298.68Z"/><path class="cls-7" d="M1188.28,349.86C799.35,166.08,357.65,284.59,201.72,614.58,273.86,684,399.4,808.83,486.86,973.66,701.65,542.91,1010.36,265.79,1188.28,349.86Z"/><path class="cls-7" d="M199.87,638.3a5.2,5.2,0,0,1-4.7-7.43c1.27-2.68,10-21.14,11.31-23.79C283.62,450.24,428,337.18,613,288.76s389.15-26.61,575.19,61.3a5.2,5.2,0,1,1-4.45,9.41C806.18,181.06,372,294.18,215.81,611.68c-1.31,2.64-10,21-11.24,23.64A5.21,5.21,0,0,1,199.87,638.3Z"/><polygon class="cls-7" points="1188.28 349.87 1188.28 349.87 1188.28 349.87 1188.28 349.87"/><path class="cls-7" d="M1188.28,349.86h0c-177.92-84.07-486.63,193-701.42,623.79,112.11,15.29,569.54,235.41,664.83,314.16C1348.1,848.39,1366.19,433.94,1188.28,349.86Z"/><path class="cls-7" d="M1140.6,1309.79a5.2,5.2,0,0,1-4.75-7.33c196.21-439,217.45-861.49,47.35-941.87S700,564.81,485.44,995.11a5.2,5.2,0,0,1-9.31-4.64c104.21-209,234.62-390.68,367.19-511.57,135.26-123.35,257.54-168.71,344.32-127.71S1317,515.44,1307.53,698.25c-9.27,179.14-66.86,395.22-162.17,608.46A5.21,5.21,0,0,1,1140.6,1309.79Z"/><polygon class="cls-8" points="383.4 1268.72 492.16 1330.98 492.93 1366.21 637.31 1450.21 844.81 1532.62 1241.44 1438.02 1206.59 1421.84 1347.24 1211.49 1355.94 1117.01 972.96 886.34 889.07 967.03 383.4 1268.72"/><polygon class="cls-5" points="624.63 763.07 1044.48 1007.34 1285.86 1041.81 865.75 802.37 624.63 763.07"/><polygon class="cls-9" points="1044.34 1007.34 1044.34 1419.37 1087.71 1394.86 1087.79 1385.79 1242.06 1294.47 1251.46 1297.96 1285.86 1277.57 1285.86 1041.81 1044.34 1007.34"/><polygon class="cls-10" points="1044.48 1007.34 1044.48 1419.37 624.63 1174.95 624.63 763.07 1044.48 1007.34"/><polygon class="cls-11" points="1077.83 1183.47 1261.56 1073.1 1261.56 1291.98 1251.46 1297.96 1242.06 1294.47 1087.79 1385.79 1087.71 1394.86 1077.83 1400.71 1077.83 1183.47"/><polygon class="cls-5" points="1242.06 1294.47 1242.06 1096.43 1087.79 1189.11 1087.79 1385.79 1242.06 1294.47"/><polygon class="cls-12" points="1242.06 1111.51 1242.06 1096.43 1087.79 1189.11 1087.79 1202.82 1242.06 1111.51"/><polygon class="cls-12" points="1242.06 1113.41 1242.06 1105.39 1087.79 1198.07 1087.79 1204.73 1242.06 1113.41"/><polygon class="cls-12" points="1242.06 1129.03 1242.06 1121 1087.79 1213.68 1087.79 1220.34 1242.06 1129.03"/><polygon class="cls-12" points="1242.06 1144.64 1242.06 1136.62 1087.79 1229.3 1087.79 1235.96 1242.06 1144.64"/><polygon class="cls-12" points="1242.06 1160.26 1242.06 1152.23 1087.79 1244.91 1087.79 1251.57 1242.06 1160.26"/><polygon class="cls-12" points="1242.06 1175.87 1242.06 1167.85 1087.79 1260.52 1087.79 1267.19 1242.06 1175.87"/><polygon class="cls-12" points="1242.06 1191.48 1242.06 1183.46 1087.79 1276.14 1087.79 1282.8 1242.06 1191.48"/><polygon class="cls-12" points="1242.06 1207.1 1242.06 1199.08 1087.79 1291.75 1087.79 1298.42 1242.06 1207.1"/><polygon class="cls-12" points="1242.06 1222.71 1242.06 1214.69 1087.79 1307.37 1087.79 1314.03 1242.06 1222.71"/><polygon class="cls-12" points="1242.06 1238.33 1242.06 1230.31 1087.79 1322.98 1087.79 1329.65 1242.06 1238.33"/><polygon class="cls-12" points="1242.06 1253.94 1242.06 1245.92 1087.79 1338.6 1087.79 1345.26 1242.06 1253.94"/><polygon class="cls-12" points="1242.06 1269.56 1242.06 1261.54 1087.79 1354.21 1087.79 1360.88 1242.06 1269.56"/><polygon class="cls-12" points="1242.06 1285.17 1242.06 1277.15 1087.79 1369.83 1087.79 1376.49 1242.06 1285.17"/><polygon class="cls-13" points="812.99 1251.52 812.99 1513.91 383.4 1268.72 383.4 1004.85 812.99 1251.52"/><polygon class="cls-5" points="812.99 1254.01 1014.46 907.5 584.88 662.3 383.4 1007.34 812.99 1254.01"/><polygon class="cls-14" points="413.46 1284.71 413.46 1054.81 505.2 1108.59 505.2 1338.08 413.46 1284.71"/><polygon class="cls-11" points="495.24 1114.29 495.24 1320.77 423.42 1278.98 423.42 1072.19 495.24 1114.29"/><polygon class="cls-15" points="812.99 1513.91 812.99 1254.01 1013.59 904.88 1013.59 1401.63 812.99 1513.91"/><polygon class="cls-16" points="822.9 926.58 637.31 1035.13 637.31 1450.21 667.53 1432.51 667.53 1169.89 822.9 926.58"/><polygon class="cls-17" points="432.54 1274.42 495.24 1310.89 495.24 1114.29 432.54 1077.54 432.54 1274.42"/><polygon class="cls-7" points="432.54 1274.42 495.24 1114.29 432.54 1077.54 432.54 1274.42"/><path class="cls-5" d="M432.54,1077.54v196.88l62.69,36.47v-196.6Zm57.72,224.7-52.74-30.68V1086.23l52.74,30.91Z"/><polygon class="cls-18" points="637.31 1035.13 637.31 1450.21 492.93 1366.21 492.93 950.5 637.31 1035.13"/><polygon class="cls-19" points="519.26 1380.55 519.26 1150.65 610.99 1204.42 610.99 1433.92 519.26 1380.55"/><polygon class="cls-11" points="601.03 1210.13 601.03 1416.61 529.21 1374.82 529.21 1168.03 601.03 1210.13"/><polygon class="cls-14" points="692.89 1443.61 692.89 1213.71 784.62 1267.49 784.62 1496.98 692.89 1443.61"/><polygon class="cls-11" points="774.66 1273.19 774.66 1479.67 702.84 1437.89 702.84 1231.09 774.66 1273.19"/><polygon class="cls-14" points="519.26 1120.43 519.26 996.31 610.99 1050.09 610.99 1173.8 519.26 1120.43"/><polygon class="cls-11" points="601.03 1055.79 601.03 1156.49 529.21 1114.7 529.21 1013.69 601.03 1055.79"/><polygon class="cls-17" points="538.34 1370.26 601.03 1406.73 601.03 1210.13 538.34 1173.38 538.34 1370.26"/><polygon class="cls-7" points="538.34 1370.26 601.03 1210.13 538.34 1173.38 538.34 1370.26"/><polygon class="cls-17" points="711.97 1433.32 774.66 1469.8 774.66 1273.19 711.97 1236.44 711.97 1433.32"/><polygon class="cls-7" points="711.97 1433.32 774.66 1273.19 711.97 1236.44 711.97 1433.32"/><polygon class="cls-17" points="538.34 1110.14 601.03 1146.62 601.03 1055.79 538.34 1019.04 538.34 1110.14"/><path class="cls-5" d="M712,1236.44v196.88l62.69,36.47v-196.6Zm57.72,224.7-52.74-30.68V1245.13L769.69,1276Z"/><polygon class="cls-7" points="538.34 1110.14 601.03 1055.79 538.34 1019.04 538.34 1110.14"/><path class="cls-5" d="M538.34,1019v91.1L601,1146.62v-90.82ZM596.06,1138l-52.74-30.68v-79.55l52.74,30.91Z"/><path class="cls-5" d="M538.34,1173.38v196.88L601,1406.73v-196.6Zm57.72,224.7-52.74-30.68V1182.07L596.06,1213Z"/><polygon class="cls-11" points="866.8 1226.43 882.56 1217.38 975.03 1163.59 975.03 1029.36 866.8 1226.43"/><polygon class="cls-14" points="893.25 1199.65 965.07 1157.86 965.07 1069.3 893.25 1199.65"/><polygon class="cls-11" points="868.46 1253.75 975.03 1192.77 975.03 1422.67 868.46 1483.24 868.46 1253.75"/><polygon class="cls-14" points="878.42 1259.46 878.42 1465.93 965.07 1416.94 965.07 1210.15 878.42 1259.46"/><polygon class="cls-5" points="956.77 1412.38 956.77 1215.01 878.42 1259.46 878.42 1456.54 956.77 1412.38"/><path class="cls-12" d="M878.42,1259.46v197.09l78.35-44.16V1215Zm73.37,150L883.4,1448V1262.36l68.39-38.8Z"/><polygon class="cls-17" points="956.77 1084.36 900.86 1185.83 956.77 1153.3 956.77 1084.36"/><path class="cls-5" d="M900.86,1185.83l55.91-32.53v-68.94Zm50.93-35.39-37.89,22,37.89-68.77Z"/><polygon class="cls-5" points="637.31 1035.13 822.9 926.58 678.52 842.59 492.93 950.5 637.31 1035.13"/><polygon class="cls-20" points="844.75 1520.51 844.75 1532.62 1044.63 1419.2 1044.63 1407.09 844.75 1520.51"/><polygon class="cls-21" points="844.81 1520.51 844.81 1532.62 812.93 1513.89 812.93 1501.86 844.81 1520.51"/><polygon class="cls-22" points="812.93 1501.86 844.81 1520.51 1044.63 1407.09 1013.51 1389.01 812.93 1501.86"/><path class="cls-23" d="M896.5,1339.54a11.28,11.28,0,0,1-5.12,8.83c-2.83,1.63-5.12.33-5.12-2.92a11.28,11.28,0,0,1,5.12-8.83C894.21,1335,896.5,1336.29,896.5,1339.54Z"/><polygon class="cls-24" points="667.53 1169.89 822.9 926.58 711.22 1194.9 667.53 1169.89"/><polygon class="cls-25" points="812.93 1501.86 1044.63 1407.09 1013.51 1389.01 812.93 1501.86"/><polygon class="cls-14" points="1242.06 1096.43 1242.06 1294.47 1251.46 1297.96 1251.46 1091.36 1242.06 1096.43"/><rect class="cls-26" x="199.38" y="1018.32" width="1325.68" height="37.67" transform="translate(-447.14 1360.71) rotate(-64.14)"/><path class="cls-26" d="M1074.46,619.37a18.85,18.85,0,0,1-17-27l143.16-298a18.84,18.84,0,0,1,34,16.31l-143.16,298A18.85,18.85,0,0,1,1074.46,619.37Z"/><rect class="cls-27" x="193.32" y="1028.4" width="1325.68" height="13.45" transform="translate(-448.66 1354.44) rotate(-64.16)"/><rect class="cls-28" x="197.36" y="1033.11" width="1314.91" height="2.69" transform="translate(-448.87 1352.61) rotate(-64.15)"/><path class="cls-27" d="M1070.43,603.89a6.73,6.73,0,0,1-6.06-9.64l143.16-298a6.73,6.73,0,0,1,12.13,5.83l-143.16,298A6.73,6.73,0,0,1,1070.43,603.89Z"/><path class="cls-28" d="M1069.08,597.84a1.35,1.35,0,0,1-1.21-1.93l143.16-298a1.35,1.35,0,0,1,1.22-.76,1.32,1.32,0,0,1,.58.13,1.35,1.35,0,0,1,.63,1.8l-143.16,298A1.35,1.35,0,0,1,1069.08,597.84Z"/><rect class="cls-27" x="214.4" y="1042.98" width="1314.91" height="2.69" transform="translate(-448.14 1373.51) rotate(-64.15)"/><path class="cls-27" d="M1086.13,607.71a1.35,1.35,0,0,1-1.21-1.93l143.16-298a1.35,1.35,0,0,1,1.22-.76,1.31,1.31,0,0,1,.58.13,1.35,1.35,0,0,1,.63,1.8l-143.16,298A1.35,1.35,0,0,1,1086.13,607.71Z"/><path class="cls-29" d="M1195.28,347.86C806.35,164.08,364.65,282.59,208.72,612.58c37,35.63,88.07,85.85,140.83,148.54,72.12,7.71,151.36,30.93,227.55,75.59,168.64-6.88,523,150.14,612,289.2,237.26-41,483.41,8.4,444.43,90.87,21.26-45,33.44-99,37.73-159.24C1683,780.55,1501,492.32,1195.28,347.86Z"/><path class="cls-30" d="M1296.53,915a5.8,5.8,0,0,1-.88-.07,5.34,5.34,0,0,1-4.29-6.12c.18-1.11.74-2.6,2.87-7.93.85-2.12,2.13-5.31,2.34-6.07,45.09-288.16,5.48-484.57-108.73-538.54C1073.95,302.47,897.59,396,704,612.83c-.49.64-2.45,4.06-3.75,6.31-2.78,4.83-4,6.9-5,8a5.2,5.2,0,1,1-7.79-6.89c.49-.64,2.44-4,3.73-6.27,2.8-4.88,4-7,5-8.06,196.91-220.55,377.72-315,496.07-259C1311,403,1352.7,603.38,1306.78,896.76c-.18,1.14-.75,2.63-2.9,8-.84,2.1-2.11,5.28-2.32,6A5,5,0,0,1,1296.53,915Z"/><path class="cls-5" d="M1614.15,1277.13c155.93-330-32.95-746.48-421.87-930.26h0c122.94,58.09,157.5,269.51,112.2,554.72C1524.24,1046.57,1653.13,1194.65,1614.15,1277.13Z"/><path class="cls-31" d="M1627.25,1074.19c-67.44-87.22-174-168.67-248.38-219.78,19.76-141.07,19.55-260.46.16-354.71C1557.57,654.27,1651.83,870.74,1627.25,1074.19Z"/><path class="cls-5" d="M1192.28,346.86C803.35,163.08,361.65,281.59,205.72,611.58c39-82.48,274.87-123.4,486.76.81C884.05,396.3,1069.34,288.77,1192.28,346.86Z"/><path class="cls-32" d="M680.92,523.51c-85.17-42.17-179.73-65.09-270.53-65.09-15.57,0-30.73.65-45.37,1.92C476.24,354.18,636,292.61,814.61,292.61a795.31,795.31,0,0,1,134.48,11.63C851,356,756.85,441.79,680.92,523.51Z"/><polygon class="cls-33" points="1192.28 346.87 1192.28 346.87 1192.28 346.87 1192.28 346.87"/><path class="cls-5" d="M1192.28,346.86h0c-122.94-58.1-308.23,49.44-499.8,265.52,168.64-6.88,523,150.14,612,289.2C1349.78,616.38,1315.22,405,1192.28,346.86Z"/><path class="cls-34" d="M1103.46,730.37c-82.24-67.07-214.75-125.9-317.7-146.95C869.27,501.18,1056.47,353,1112.85,353c12.8,0,24,2.37,34.34,7.24C1201.83,386,1150.52,567.1,1103.46,730.37Z"/><path class="cls-35" d="M434.74,1698.1l16.64,9.73a97.2,97.2,0,0,0,97.07.64l278.7-184.57L976.28,896.16,912.85,859.3,772.51,1508.08Z"/><path class="cls-36" d="M715.24,1407s.09-.07.11-.12c2.34-4.84-7.44-14.42-21.85-21.4s-28-8.73-30.34-3.89c0,0,0,.11,0,.16l-.65-.31L546.54,1620.74a69.34,69.34,0,0,1-124.8-60.47l25.89-53.42-.7-.34,0,0c2.34-4.84-7.44-14.42-21.85-21.4s-28-8.73-30.34-3.89c0,0,0,0,0,.06l-.4-.19-25.89,53.42a128.53,128.53,0,1,0,231.33,112.1l115.95-239.28Z"/><path class="cls-37" d="M474.63,1701.8a114,114,0,0,1-47.22-10.23c-27.78-12.55-48.95-35.64-59.59-65a120.2,120.2,0,0,1,4.7-92.86l21-43.35a16.24,16.24,0,0,1,14.53-9.1,16.14,16.14,0,0,1,14.52,23.19l-21.43,44.21c-9.25,19.1-11.57,40.07-6.52,59.07,7.75,29.14,30,51.28,59.42,59.22a78.69,78.69,0,0,0,20.44,2.71,77.55,77.55,0,0,0,10.84-.76c28.35-4,51.64-20.8,63.9-46.09l112.43-232a16.24,16.24,0,0,1,14.53-9.1,16.14,16.14,0,0,1,14.52,23.19l-112.43,232a115.37,115.37,0,0,1-103.64,64.95Z"/><path class="cls-38" d="M474.63,1693.72a106.44,106.44,0,0,1-43.9-9.52c-55.11-24.9-77.32-92.59-50.95-147l21-43.35a8.07,8.07,0,0,1,10.78-3.74h0a8.07,8.07,0,0,1,3.74,10.78l-21.42,44.21c-9.74,20.1-12.8,43.09-7.06,64.67,8.46,31.8,32.58,56.16,65.12,64.94a86.43,86.43,0,0,0,34.51,2.14c31.22-4.41,56.79-23.24,70-50.56l112.43-232a8.07,8.07,0,0,1,10.78-3.74h0a8.07,8.07,0,0,1,3.74,10.78L571,1633.33a107.3,107.3,0,0,1-96.38,60.4Z"/><path class="cls-39" d="M472.61,1687.67a100.64,100.64,0,0,1-41.68-9c-24.45-11-43.09-31.41-52.48-57.35a106.68,106.68,0,0,1,4.16-82.41l21-43.35a2.69,2.69,0,1,1,4.84,2.34L387,1542.08c-10.66,22-13.3,46.29-7.42,68.39,9,33.84,34.77,59.54,68.92,68.76a91.67,91.67,0,0,0,36.66,2.28c32.86-4.65,59.88-24.16,74.12-53.54l112.43-232a2.69,2.69,0,1,1,4.84,2.34l-112.43,232a101.9,101.9,0,0,1-91.53,57.36Z"/><g class="cls-40"><path class="cls-39" d="M431.19,1507.63l-21,43.35c-4.48,9.25-5.58,23.17-5.35,36.45a104.28,104.28,0,0,1,9.77-33.25L436,1510a2.7,2.7,0,0,0-1.25-3.59,2.65,2.65,0,0,0-1.17-.27A2.68,2.68,0,0,0,431.19,1507.63Z"/><path class="cls-39" d="M702.9,1406.81a2.65,2.65,0,0,0-1.17-.27,2.68,2.68,0,0,0-2.42,1.52l-112.43,232a96.36,96.36,0,0,1-21.42,29A126.74,126.74,0,0,1,538,1692.34a100.77,100.77,0,0,0,53.75-49.93l112.43-232A2.7,2.7,0,0,0,702.9,1406.81Z"/></g><path class="cls-5" d="M1146.71,121.26l13.89,8-22.06,52.15-15-8.66-22-77.59,13.89,8,12.2,45.66q1,4,2.11,9.18t1.35,7.11a76.23,76.23,0,0,1,3.33-12.37Z"/><path class="cls-5" d="M1206.14,220.46l-37.37-21.57V134l37.37,21.57v11.27l-23.61-13.63v14.25l22,12.68v11.27l-22-12.68v16.73l23.61,13.63Z"/><path class="cls-5" d="M1233.43,211.32v24.9l-13.76-7.94V163.39l18.91,10.92q13.22,7.64,19.57,16.12a29.93,29.93,0,0,1,6.35,18.29q0,5.73-3.15,8.37t-8.92,1.84c6.33,13.11,12.64,26.23,19.08,39.29l-15.27-8.81-15.49-33.84Zm0-11.18,4.44,2.56q6.52,3.77,9.63,3.39t3.11-5a12.77,12.77,0,0,0-3.17-8.4,36.85,36.85,0,0,0-9.83-7.63l-4.17-2.41Z"/><path class="cls-5" d="M1279.68,262.91V198l13.76,7.94v64.89Z"/><path class="cls-5" d="M1323.31,288.1l-13.54-7.82V215.4L1347,236.87v11.27l-23.66-13.66v16.73l22,12.71v11.23l-22-12.71Z"/><path class="cls-5" d="M1359.65,309.09V244.2l13.76,7.94V317Z"/><path class="cls-5" d="M1417.31,288q-7.77-4.48-12-1.11c-2.84,2.25-4.18,6.94-4.26,13.81-.15,12.42,5.16,24.75,16.29,31.11a60,60,0,0,0,16.55,6.14v11.54c-5.33-.86-11.32-3.36-17.84-7a62.64,62.64,0,0,1-21.66-21.09,61.39,61.39,0,0,1-7.5-29c.11-6.63,1.23-11.95,3.68-15.6a12.16,12.16,0,0,1,10.58-5.56q6.9-.08,16.18,5.28a85.65,85.65,0,0,1,19,15.54l-4.44,8.62q-3.64-3.83-7.32-7.25A40.79,40.79,0,0,0,1417.31,288Z"/><path class="cls-5" d="M1487.38,382.83l-4.7-18.16L1459,351l-4.7,12.73-14.82-8.56,22.9-51.93,16.82,9.71,23,78.42Zm-8-31.6c-2.46-9.33-4.95-18.67-7.35-28-.55-2.14-.94-3.83-1.18-5q-1.47,4.83-8.39,23.25Z"/><path class="cls-5" d="M1535.4,410.56l-13.76-7.94V349.18L1504,339V327.56l49,28.29v11.45l-17.62-10.17Z"/><path class="cls-5" d="M1563,426.49V361.61l13.76,7.94v64.89Z"/><path class="cls-5" d="M1652,445.34c-.18,10.55-2.66,17.46-8,20.15s-13,.91-22.9-4.57c-8.54-4.74-17.87-13.57-22.9-21.88a60.73,60.73,0,0,1-8-29.47c.18-10.61,2.67-17.51,8-20.12s13.07-.77,23,4.72c8.52,4.72,17.86,13.52,22.88,21.82A60.52,60.52,0,0,1,1652,445.34ZM1604.64,418q0,10.87,4.13,18.76c2.75,5.26,7.45,9.34,12.34,12.63,10.16,6.84,16.94-2.81,16.47-12.37-.58-11.72-5.16-25-16.38-31.38-5.46-3.12-9.6-3.7-12.38-1.62S1604.64,410.75,1604.64,418Z"/><path class="cls-5" d="M1723,518.87l-17.49-10.1-28.23-65.38-.4-.23q.84,13.49.84,19v30.53l-12.29-7.1V420.75l17.35,10L1711,495.63l.31.18q-.67-13-.67-18.27V446.83L1723,454Z"/></g></g></g></svg>